<svg width="94" height="23" viewBox="0 0 94 23" fill="none" xmlns="http://www.w3.org/2000/svg">
<path d="M65.0572 14.2546C65.0572 15.3434 64.1746 16.2261 63.0858 16.2261C61.997 16.2261 61.1144 15.3434 61.1144 14.2546C61.1144 13.1658 61.997 12.2832 63.0858 12.2832C64.1746 12.2832 65.0572 13.1658 65.0572 14.2546Z" fill="#E84911"/>
<path d="M52.4417 16.4298C51.1516 16.4298 50.0175 16.165 49.0397 15.6353C48.0755 15.1057 47.3217 14.3791 46.7785 13.4556C46.2488 12.5185 45.984 11.4592 45.984 10.2777C45.984 9.08254 46.2488 8.02322 46.7785 7.09972C47.3217 6.17621 48.0755 5.44963 49.0397 4.91997C50.0175 4.39032 51.1516 4.12549 52.4417 4.12549C53.7591 4.12549 54.8999 4.39032 55.8641 4.91997C56.8284 5.44963 57.5754 6.17621 58.105 7.09972C58.6482 8.02322 58.9199 9.08254 58.9199 10.2777C58.9199 11.4592 58.6482 12.5185 58.105 13.4556C57.5754 14.3791 56.8284 15.1057 55.8641 15.6353C54.8999 16.165 53.7591 16.4298 52.4417 16.4298ZM52.4417 14.6168C53.3109 14.6168 54.0579 14.4402 54.6826 14.0871C55.3209 13.734 55.8166 13.2383 56.1697 12.6C56.5364 11.9481 56.7198 11.1808 56.7198 10.298C56.7198 9.42885 56.5364 8.66832 56.1697 8.01643C55.8166 7.35097 55.3209 6.84168 54.6826 6.48857C54.0579 6.12189 53.3109 5.93855 52.4417 5.93855C51.5861 5.93855 50.8392 6.12189 50.2009 6.48857C49.5626 6.84168 49.0669 7.35097 48.7138 8.01643C48.3743 8.66832 48.2045 9.42885 48.2045 10.298C48.2045 11.1808 48.3743 11.9481 48.7138 12.6C49.0669 13.2383 49.5626 13.734 50.2009 14.0871C50.8392 14.4402 51.5861 14.6168 52.4417 14.6168Z" fill="#212121"/>
<path d="M33.0505 16.2262V14.6779H34.4562V5.89784H33.0505V4.34961H39.4472C40.8596 4.34961 41.9189 4.6416 42.6251 5.22558C43.3449 5.80956 43.7048 6.68553 43.7048 7.8535C43.7048 9.03504 43.3449 9.9178 42.6251 10.5018C41.9053 11.0722 40.9071 11.3574 39.6305 11.3574H39.2638L40.8324 10.6036L43.3585 14.6779H44.8863V16.2262H41.7899L38.7749 11.3574H37.5119V9.80915H39.0805C39.9632 9.80915 40.5812 9.63939 40.9343 9.29987C41.301 8.94676 41.4843 8.46464 41.4843 7.8535C41.4843 7.24235 41.3078 6.76702 40.9547 6.42749C40.6015 6.07439 39.9768 5.89784 39.0805 5.89784H36.5952V14.6779H38.0008V16.2262H33.0505Z" fill="#212121"/>
<path d="M26.6448 16.2262V14.6779H28.0504V5.89784H26.6448V4.34961H31.595V5.89784H30.1894V14.6779H31.595V16.2262H26.6448Z" fill="#212121"/>
<path d="M12.2812 16.2262V14.6779H13.6869V5.89784H12.2812V4.34961H17.2315V5.89784H15.8259V9.44247H21.6317V5.89784H20.2057V4.34961H25.1764V5.89784H23.7707V14.6779H25.1764V16.2262H20.2057V14.6779H21.6317V10.9296H15.8259V14.6779H17.2315V16.2262H12.2812Z" fill="#212121"/>
<path d="M6.34396 16.4297C5.35255 16.4297 4.52411 16.2668 3.85864 15.9408C3.20676 15.6013 2.72463 15.1056 2.41227 14.4537L2.77896 14.6167V16.226H1.31221V12.2536H2.71784C2.77217 13.0956 3.0302 13.7339 3.49196 14.1685C3.95371 14.6031 4.75498 14.8204 5.89578 14.8204C6.81929 14.8204 7.47797 14.6574 7.87181 14.3315C8.27924 13.9919 8.48296 13.5845 8.48296 13.1092C8.48296 12.6746 8.34036 12.3351 8.05516 12.0906C7.76996 11.8326 7.27425 11.6356 6.56804 11.4998L4.44941 11.072C3.43084 10.8819 2.64315 10.5016 2.08633 9.93124C1.52951 9.36084 1.2511 8.62068 1.2511 7.71075C1.2511 7.05887 1.40728 6.46131 1.71964 5.91807C2.032 5.37483 2.50055 4.94703 3.12527 4.63467C3.74999 4.30872 4.52411 4.14575 5.44761 4.14575C6.33038 4.14575 7.07054 4.31551 7.6681 4.65504C8.27924 4.98098 8.72741 5.4699 9.01261 6.12178H8.64593V4.34947H10.1127V7.81261H8.70704C8.65272 7.21505 8.3811 6.72613 7.89218 6.34587C7.41685 5.95202 6.72422 5.7551 5.8143 5.7551C5.25748 5.7551 4.80252 5.82979 4.44941 5.97918C4.09631 6.12857 3.83827 6.33229 3.6753 6.59032C3.52591 6.83478 3.45121 7.1064 3.45121 7.40518C3.45121 7.81261 3.59381 8.14534 3.87901 8.40338C4.16421 8.66142 4.63276 8.85155 5.28464 8.97378L7.40327 9.38121C8.47617 9.59851 9.29102 9.97198 9.84784 10.5016C10.4047 11.0313 10.6831 11.7918 10.6831 12.7832C10.6831 13.4623 10.5133 14.0802 10.1738 14.637C9.84784 15.1803 9.36572 15.6149 8.72741 15.9408C8.08911 16.2668 7.29462 16.4297 6.34396 16.4297Z" fill="#212121"/>
<path d="M91.107 16.3313C90.6514 16.3313 90.2518 16.2331 89.9084 16.0369C89.5719 15.8406 89.3091 15.5777 89.1198 15.2483C88.9376 14.9118 88.8464 14.5368 88.8464 14.1233C88.8464 13.7097 88.9376 13.3382 89.1198 13.0087C89.3091 12.6793 89.5719 12.4199 89.9084 12.2307C90.2518 12.0344 90.6514 11.9363 91.107 11.9363C91.5556 11.9363 91.9481 12.0344 92.2846 12.2307C92.6281 12.4199 92.8944 12.6793 93.0837 13.0087C93.273 13.3382 93.3676 13.7097 93.3676 14.1233C93.3676 14.5368 93.273 14.9118 93.0837 15.2483C92.8944 15.5777 92.6281 15.8406 92.2846 16.0369C91.9481 16.2331 91.5556 16.3313 91.107 16.3313ZM91.107 15.5217C91.4925 15.5217 91.8045 15.392 92.0428 15.1326C92.2881 14.8733 92.4108 14.5368 92.4108 14.1233C92.4108 13.7167 92.2881 13.3873 92.0428 13.1349C91.8045 12.8756 91.4925 12.7459 91.107 12.7459C90.7075 12.7459 90.3885 12.8756 90.1502 13.1349C89.9119 13.3873 89.7927 13.7167 89.7927 14.1233C89.7927 14.5368 89.9119 14.8733 90.1502 15.1326C90.3885 15.392 90.7075 15.5217 91.107 15.5217Z" fill="#212121"/>
<path d="M85.9266 16.2261V15.4796H86.5995V12.7774H85.874V12.0414H87.5879V15.4796H88.2082V16.2261H85.9266ZM87.0937 11.3369C86.8904 11.3369 86.7327 11.2773 86.6205 11.1582C86.5084 11.039 86.4523 10.8918 86.4523 10.7166C86.4523 10.5273 86.5084 10.3731 86.6205 10.254C86.7327 10.1278 86.8904 10.0647 87.0937 10.0647C87.2899 10.0647 87.4442 10.1278 87.5563 10.254C87.6685 10.3731 87.7245 10.5273 87.7245 10.7166C87.7245 10.8918 87.6685 11.039 87.5563 11.1582C87.4442 11.2773 87.2899 11.3369 87.0937 11.3369Z" fill="#212121"/>
<path d="M82.5376 16.3312C82.096 16.3312 81.7245 16.226 81.4231 16.0157C81.1287 15.8054 80.9044 15.5321 80.7502 15.1956C80.603 14.8592 80.5294 14.5017 80.5294 14.1232C80.5294 13.7446 80.603 13.3907 80.7502 13.0612C80.9044 12.7318 81.1287 12.4619 81.4231 12.2516C81.7245 12.0413 82.096 11.9362 82.5376 11.9362C82.8391 11.9362 83.1264 12.0063 83.3998 12.1465C83.6732 12.2797 83.8835 12.4794 84.0307 12.7458L83.8835 12.7353V10.8427H83.158V10.0962H84.8718V15.4795H85.5132V16.226H83.9466V15.469L84.0307 15.5216C83.8835 15.7809 83.6732 15.9807 83.3998 16.1209C83.1264 16.2611 82.8391 16.3312 82.5376 16.3312ZM82.7269 15.5005C82.9512 15.5005 83.1685 15.455 83.3788 15.3638C83.5961 15.2727 83.7818 15.1255 83.936 14.9222L83.8835 15.3323V12.9666L83.936 13.3451C83.7818 13.1348 83.5961 12.9876 83.3788 12.9035C83.1685 12.8124 82.9512 12.7668 82.7269 12.7668C82.3764 12.7668 82.0785 12.886 81.8332 13.1243C81.5949 13.3556 81.4757 13.6886 81.4757 14.1232C81.4757 14.5648 81.5949 14.9047 81.8332 15.143C82.0785 15.3814 82.3764 15.5005 82.7269 15.5005Z" fill="#212121"/>
<path d="M76.7632 16.3313C76.3497 16.3313 76.0062 16.2157 75.7328 15.9844C75.4665 15.746 75.3333 15.3815 75.3333 14.8909V12.7775H74.6078V12.0415H76.3216V14.6596C76.3216 14.947 76.3847 15.1572 76.5109 15.2904C76.6441 15.4236 76.8543 15.4902 77.1417 15.4902C77.352 15.4902 77.5693 15.4481 77.7936 15.364C78.0179 15.2729 78.2457 15.1257 78.477 14.9224L78.2668 15.2484V12.7775H77.5938V12.0415H79.2551V15.4797H79.8754V16.2262H78.3509V15.5953L78.5506 15.5638C78.2843 15.8231 77.9969 16.0159 77.6885 16.1421C77.3801 16.2682 77.0716 16.3313 76.7632 16.3313Z" fill="#212121"/>
<path d="M73.5821 16.3313C73.1405 16.3313 72.776 16.2121 72.4886 15.9738C72.2082 15.7285 72.068 15.336 72.068 14.7962V12.7775H71.3425V12.0415H72.068V10.6536L73.0564 10.4749V12.0415H74.2129V12.7775H73.0564V14.6595C73.0564 14.975 73.1229 15.1923 73.2561 15.3114C73.3963 15.4306 73.5856 15.4902 73.8239 15.4902C73.915 15.4902 74.0061 15.4797 74.0973 15.4586C74.1884 15.4306 74.269 15.4025 74.3391 15.3745L74.4653 16.1105C74.3601 16.1736 74.2269 16.2262 74.0657 16.2682C73.9115 16.3103 73.7503 16.3313 73.5821 16.3313Z" fill="#212121"/>
<path d="M69.2572 16.3313C68.7665 16.3313 68.388 16.2507 68.1217 16.0894C67.8623 15.9212 67.6836 15.6899 67.5854 15.3955L67.8273 15.3219V16.2261H67.1228V14.7857H67.7537C67.7887 14.9819 67.8693 15.1502 67.9955 15.2904C68.1217 15.4235 68.2794 15.5252 68.4686 15.5953C68.6579 15.6654 68.8612 15.7004 69.0785 15.7004C69.3729 15.7004 69.5902 15.6513 69.7303 15.5532C69.8705 15.4551 69.9406 15.3289 69.9406 15.1747C69.9406 15.0625 69.8951 14.9679 69.8039 14.8908C69.7198 14.8067 69.5446 14.7296 69.2782 14.6595L68.3004 14.4177C67.9359 14.3195 67.6485 14.1758 67.4382 13.9866C67.2279 13.7973 67.1228 13.545 67.1228 13.2296C67.1228 12.9562 67.1894 12.7214 67.3226 12.5251C67.4628 12.3288 67.659 12.1816 67.9114 12.0835C68.1637 11.9784 68.4546 11.9258 68.7841 11.9258C69.1696 11.9258 69.4745 11.9994 69.6988 12.1466C69.9301 12.2938 70.0878 12.5006 70.1719 12.7669L69.9406 12.7774V12.0414H70.6556V13.3768H70.0142C70.0002 13.1805 69.9406 13.0228 69.8355 12.9036C69.7303 12.7844 69.6007 12.6968 69.4465 12.6408C69.2923 12.5847 69.1275 12.5566 68.9523 12.5566C68.6649 12.5566 68.4476 12.6057 68.3004 12.7038C68.1602 12.802 68.0901 12.9281 68.0901 13.0824C68.0901 13.2155 68.1392 13.3172 68.2373 13.3873C68.3355 13.4574 68.5002 13.524 68.7315 13.587L69.7093 13.8184C70.0948 13.9095 70.3892 14.0497 70.5925 14.2389C70.8028 14.4282 70.9079 14.7016 70.9079 15.059C70.9079 15.3184 70.8379 15.5427 70.6977 15.732C70.5645 15.9212 70.3752 16.0684 70.1299 16.1736C69.8846 16.2787 69.5937 16.3313 69.2572 16.3313Z" fill="#212121"/>
</svg>
